<?xml version="1.0" encoding="UTF-8"?>
<svg id="Layer_1" xmlns="http://www.w3.org/2000/svg" version="1.1" viewBox="0 0 14 20">
  <!-- Generator: Adobe Illustrator 29.2.1, SVG Export Plug-In . SVG Version: 2.1.0 Build 116)  -->
  <defs>
    <style>
      .st0 {
        fill: #ef9358;
        fill-rule: evenodd;
      }
    </style>
  </defs>
  <path class="st0" d="M13.28,7.92c0,2.29,0,4.58,0,6.87,0,1.3-.41,2.45-1.27,3.43-.79.91-1.79,1.44-2.98,1.63-.4.06-.65-.15-.67-.55,0-.09,0-.18,0-.28,0-2.65,0-5.3,0-7.94,0-.42.04-.39-.39-.39-.31,0-.62,0-.94,0-.24,0-.25,0-.25.26,0,.77,0,1.55,0,2.32,0,.15,0,.3-.1.43-.15.21-.35.28-.6.27-1.11-.02-2.12-.35-3.02-.99-1.32-.94-2.08-2.24-2.33-3.83-.08-.54.16-.82.7-.82.5,0,.42.04.42-.42,0-1.84,0-3.68,0-5.52,0-.13,0-.25.01-.38.03-.35.22-.58.55-.68,1.26-.39,2.52-.77,3.78-1.16.35-.11.59.08.58.49-.01,2.38,0,4.76,0,7.15,0,.55-.08.48.47.49.28,0,.56,0,.83,0,.27,0,.28,0,.28-.29,0-1.05,0-2.1,0-3.16,0-.87,0-1.73,0-2.6,0-.55.19-.8.71-.96,1.16-.36,2.32-.71,3.48-1.07.13-.04.27-.08.41-.05.19.05.29.19.32.37.02.1,0,.21,0,.31v7.08h0Z"/>
</svg>